<svg width="35" height="35" viewBox="0 0 35 35" fill="none" xmlns="http://www.w3.org/2000/svg">
<path d="M7.2915 14.5834H10.2082C13.1248 14.5834 14.5832 13.125 14.5832 10.2084V7.29169C14.5832 4.37502 13.1248 2.91669 10.2082 2.91669H7.2915C4.37484 2.91669 2.9165 4.37502 2.9165 7.29169V10.2084C2.9165 13.125 4.37484 14.5834 7.2915 14.5834Z" stroke="black" stroke-width="1.5" stroke-miterlimit="10" stroke-linecap="round" stroke-linejoin="round"/>
<path d="M24.7915 14.5834H27.7082C30.6248 14.5834 32.0832 13.125 32.0832 10.2084V7.29169C32.0832 4.37502 30.6248 2.91669 27.7082 2.91669H24.7915C21.8748 2.91669 20.4165 4.37502 20.4165 7.29169V10.2084C20.4165 13.125 21.8748 14.5834 24.7915 14.5834Z" stroke="black" stroke-width="1.5" stroke-miterlimit="10" stroke-linecap="round" stroke-linejoin="round"/>
<path d="M24.7915 32.0834H27.7082C30.6248 32.0834 32.0832 30.625 32.0832 27.7084V24.7917C32.0832 21.875 30.6248 20.4167 27.7082 20.4167H24.7915C21.8748 20.4167 20.4165 21.875 20.4165 24.7917V27.7084C20.4165 30.625 21.8748 32.0834 24.7915 32.0834Z" stroke="black" stroke-width="1.5" stroke-miterlimit="10" stroke-linecap="round" stroke-linejoin="round"/>
<path d="M7.2915 32.0834H10.2082C13.1248 32.0834 14.5832 30.625 14.5832 27.7084V24.7917C14.5832 21.875 13.1248 20.4167 10.2082 20.4167H7.2915C4.37484 20.4167 2.9165 21.875 2.9165 24.7917V27.7084C2.9165 30.625 4.37484 32.0834 7.2915 32.0834Z" stroke="black" stroke-width="1.5" stroke-miterlimit="10" stroke-linecap="round" stroke-linejoin="round"/>
</svg>
