<svg width="38" height="31" viewBox="0 0 38 31" fill="none" xmlns="http://www.w3.org/2000/svg">
<path d="M9.32425 26.4047H27.8908C29.1218 26.4047 30.3025 26.0217 31.1729 25.3401C32.0434 24.6584 32.5324 23.7338 32.5324 22.7698V8.23034C32.5324 7.26631 32.0434 6.34177 31.1729 5.6601C30.3025 4.97843 29.1218 4.59547 27.8908 4.59547H26.3436C26.3436 4.27413 26.1806 3.96595 25.8904 3.73873C25.6003 3.5115 25.2067 3.38385 24.7964 3.38385C24.386 3.38385 23.9925 3.5115 23.7023 3.73873C23.4122 3.96595 23.2492 4.27413 23.2492 4.59547H13.9659C13.9659 4.27413 13.8029 3.96595 13.5127 3.73873C13.2226 3.5115 12.829 3.38385 12.4187 3.38385C12.0083 3.38385 11.6148 3.5115 11.3246 3.73873C11.0345 3.96595 10.8715 4.27413 10.8715 4.59547H9.32425C8.09322 4.59547 6.9126 4.97843 6.04212 5.6601C5.17165 6.34177 4.68262 7.26631 4.68262 8.23034V22.7698C4.68262 23.7338 5.17165 24.6584 6.04212 25.3401C6.9126 26.0217 8.09322 26.4047 9.32425 26.4047ZM7.77704 8.23034C7.77704 7.909 7.94005 7.60082 8.23021 7.3736C8.52037 7.14637 8.91391 7.01872 9.32425 7.01872H10.8715V8.23034C10.8715 8.55168 11.0345 8.85987 11.3246 9.08709C11.6148 9.31431 12.0083 9.44197 12.4187 9.44197C12.829 9.44197 13.2226 9.31431 13.5127 9.08709C13.8029 8.85987 13.9659 8.55168 13.9659 8.23034V7.01872H23.2492V8.23034C23.2492 8.55168 23.4122 8.85987 23.7023 9.08709C23.9925 9.31431 24.386 9.44197 24.7964 9.44197C25.2067 9.44197 25.6003 9.31431 25.8904 9.08709C26.1806 8.85987 26.3436 8.55168 26.3436 8.23034V7.01872H27.8908C28.3012 7.01872 28.6947 7.14637 28.9849 7.3736C29.275 7.60082 29.438 7.909 29.438 8.23034V11.8652H7.77704V8.23034ZM7.77704 14.2885H29.438V22.7698C29.438 23.0912 29.275 23.3993 28.9849 23.6266C28.6947 23.8538 28.3012 23.9814 27.8908 23.9814H9.32425C8.91391 23.9814 8.52037 23.8538 8.23021 23.6266C7.94005 23.3993 7.77704 23.0912 7.77704 22.7698V14.2885Z" fill="#2D9CDB"/>
</svg>
